<svg width="62" height="47" viewBox="0 0 62 47" fill="none" xmlns="http://www.w3.org/2000/svg">
<g opacity="0.5">
<path d="M37.0039 10L34.0039 11.5L30.0039 8.5L29.0039 14L32.5039 17L33.0039 21.5M37.0039 8.5V21.5M29.0039 17L27.0039 21.5M27.5039 8.5C26.0039 9.5 25.0039 12 25.0039 12L27.0039 13M31.0039 6.5C31.5343 6.5 32.043 6.28929 32.4181 5.91421C32.7932 5.53914 33.0039 5.03043 33.0039 4.5C33.0039 3.96957 32.7932 3.46086 32.4181 3.08579C32.043 2.71071 31.5343 2.5 31.0039 2.5C30.4735 2.5 29.9648 2.71071 29.5897 3.08579C29.2146 3.46086 29.0039 3.96957 29.0039 4.5C29.0039 5.03043 29.2146 5.53914 29.5897 5.91421C29.9648 6.28929 30.4735 6.5 31.0039 6.5Z" stroke="black" stroke-width="2" stroke-linecap="round" stroke-linejoin="round"/>
</g>
<path opacity="0.5" d="M5.07591 44V41.936H0.851906V41.084L5.13591 35.648H6.19191V40.964H7.49991V41.936H6.19191V44H5.07591ZM2.07591 40.964H5.07591V37.16L2.07591 40.964ZM17.4923 44L16.6163 41.756H12.9083L12.0443 44H10.8683L14.2043 35.648H15.3563L18.7043 44H17.4923ZM13.2923 40.736H16.2203L14.7563 36.944L13.2923 40.736ZM22.3698 44.168C21.7858 44.168 21.2738 44.032 20.8338 43.76C20.3938 43.488 20.0498 43.108 19.8018 42.62C19.5618 42.132 19.4418 41.568 19.4418 40.928C19.4418 40.296 19.5618 39.736 19.8018 39.248C20.0498 38.76 20.3938 38.38 20.8338 38.108C21.2738 37.828 21.7858 37.688 22.3698 37.688C23.0818 37.688 23.6578 37.884 24.0978 38.276C24.5378 38.66 24.8058 39.14 24.9018 39.716H23.7858C23.7298 39.412 23.5818 39.164 23.3418 38.972C23.1018 38.772 22.7738 38.672 22.3578 38.672C21.8218 38.672 21.3818 38.88 21.0378 39.296C20.7018 39.704 20.5338 40.248 20.5338 40.928C20.5338 41.616 20.7018 42.164 21.0378 42.572C21.3818 42.98 21.8218 43.184 22.3578 43.184C22.7738 43.184 23.1018 43.092 23.3418 42.908C23.5898 42.716 23.7418 42.464 23.7978 42.152H24.9018C24.8458 42.528 24.7058 42.872 24.4818 43.184C24.2578 43.488 23.9658 43.728 23.6058 43.904C23.2538 44.08 22.8418 44.168 22.3698 44.168ZM28.4674 44.048C27.8834 44.048 27.4354 43.888 27.1234 43.568C26.8114 43.24 26.6554 42.764 26.6554 42.14V38.816H25.5634V37.856H26.6554V35.9C27.0074 35.876 27.3634 35.808 27.7234 35.696V37.856H29.0674V38.816H27.7234V42.044C27.7234 42.38 27.8034 42.64 27.9634 42.824C28.1314 43 28.3634 43.088 28.6594 43.088H29.0674V44.048H28.4674ZM30.9009 36.968C30.7009 36.968 30.5249 36.896 30.3729 36.752C30.2289 36.608 30.1569 36.432 30.1569 36.224C30.1569 36.016 30.2289 35.84 30.3729 35.696C30.5249 35.552 30.7009 35.48 30.9009 35.48C31.1089 35.48 31.2849 35.552 31.4289 35.696C31.5729 35.84 31.6449 36.016 31.6449 36.224C31.6449 36.432 31.5729 36.608 31.4289 36.752C31.2849 36.896 31.1089 36.968 30.9009 36.968ZM30.3609 44V37.856H31.4289V44H30.3609ZM36.016 44H34.912L32.488 37.856H33.7L35.488 42.752L37.276 37.856H38.44L36.016 44ZM40.0416 36.968C39.8416 36.968 39.6656 36.896 39.5136 36.752C39.3696 36.608 39.2976 36.432 39.2976 36.224C39.2976 36.016 39.3696 35.84 39.5136 35.696C39.6656 35.552 39.8416 35.48 40.0416 35.48C40.2496 35.48 40.4256 35.552 40.5696 35.696C40.7136 35.84 40.7856 36.016 40.7856 36.224C40.7856 36.432 40.7136 36.608 40.5696 36.752C40.4256 36.896 40.2496 36.968 40.0416 36.968ZM39.5016 44V37.856H40.5696V44H39.5016ZM44.5807 44.048C43.9967 44.048 43.5487 43.888 43.2367 43.568C42.9247 43.24 42.7687 42.764 42.7687 42.14V38.816H41.6767V37.856H42.7687V35.9C43.1207 35.876 43.4767 35.808 43.8367 35.696V37.856H45.1807V38.816H43.8367V42.044C43.8367 42.38 43.9167 42.64 44.0767 42.824C44.2447 43 44.4767 43.088 44.7727 43.088H45.1807V44.048H44.5807ZM47.0142 36.968C46.8142 36.968 46.6382 36.896 46.4862 36.752C46.3422 36.608 46.2702 36.432 46.2702 36.224C46.2702 36.016 46.3422 35.84 46.4862 35.696C46.6382 35.552 46.8142 35.48 47.0142 35.48C47.2222 35.48 47.3982 35.552 47.5422 35.696C47.6862 35.84 47.7582 36.016 47.7582 36.224C47.7582 36.432 47.6862 36.608 47.5422 36.752C47.3982 36.896 47.2222 36.968 47.0142 36.968ZM46.4742 44V37.856H47.5422V44H46.4742ZM51.9253 44.168C51.3173 44.168 50.7893 44.036 50.3413 43.772C49.9013 43.508 49.5613 43.132 49.3213 42.644C49.0813 42.156 48.9613 41.58 48.9613 40.916C48.9613 40.292 49.0773 39.74 49.3093 39.26C49.5493 38.772 49.8853 38.388 50.3173 38.108C50.7573 37.828 51.2813 37.688 51.8893 37.688C52.4733 37.688 52.9653 37.82 53.3653 38.084C53.7653 38.34 54.0693 38.7 54.2773 39.164C54.4853 39.62 54.5893 40.156 54.5893 40.772V41.276H50.0653C50.1213 41.9 50.3093 42.38 50.6293 42.716C50.9493 43.044 51.3853 43.208 51.9373 43.208C52.2973 43.208 52.6013 43.148 52.8493 43.028C53.1053 42.9 53.2733 42.736 53.3533 42.536H54.4573C54.3133 43.032 54.0133 43.428 53.5573 43.724C53.1013 44.02 52.5573 44.168 51.9253 44.168ZM51.8773 38.648C51.3733 38.648 50.9653 38.804 50.6533 39.116C50.3493 39.42 50.1613 39.844 50.0893 40.388H53.5093C53.4853 39.868 53.3373 39.448 53.0653 39.128C52.8013 38.808 52.4053 38.648 51.8773 38.648ZM58.197 44.18C57.477 44.18 56.885 44.012 56.421 43.676C55.957 43.332 55.677 42.9 55.581 42.38H56.661C56.725 42.612 56.889 42.812 57.153 42.98C57.425 43.148 57.765 43.232 58.173 43.232C58.573 43.232 58.893 43.152 59.133 42.992C59.373 42.824 59.493 42.596 59.493 42.308C59.493 42.076 59.409 41.888 59.241 41.744C59.073 41.592 58.785 41.488 58.377 41.432L57.441 41.312C56.281 41.168 55.701 40.6 55.701 39.608C55.701 39.232 55.801 38.9 56.001 38.612C56.209 38.324 56.489 38.1 56.841 37.94C57.201 37.772 57.609 37.688 58.065 37.688C58.729 37.688 59.269 37.848 59.685 38.168C60.101 38.488 60.365 38.896 60.477 39.392H59.409C59.329 39.144 59.173 38.956 58.941 38.828C58.717 38.7 58.433 38.636 58.089 38.636C57.697 38.636 57.381 38.724 57.141 38.9C56.909 39.068 56.793 39.292 56.793 39.572C56.793 39.804 56.877 39.98 57.045 40.1C57.213 40.22 57.489 40.304 57.873 40.352L58.809 40.472C59.393 40.544 59.833 40.744 60.129 41.072C60.433 41.4 60.585 41.8 60.585 42.272C60.585 42.656 60.481 42.992 60.273 43.28C60.065 43.568 59.781 43.792 59.421 43.952C59.061 44.104 58.653 44.18 58.197 44.18Z" fill="black"/>
</svg>
