<svg width="51" height="47" viewBox="0 0 51 47" fill="none" xmlns="http://www.w3.org/2000/svg">
<g opacity="0.5">
<path d="M35.6706 21H15.6706V19H16.6706V4C16.6706 3.73478 16.7759 3.48043 16.9635 3.29289C17.151 3.10536 17.4054 3 17.6706 3H31.6706C31.9358 3 32.1901 3.10536 32.3777 3.29289C32.5652 3.48043 32.6706 3.73478 32.6706 4V9H34.6706V19H35.6706V21ZM30.6706 19H32.6706V11H26.6706V19H28.6706V13H30.6706V19ZM30.6706 9V5H18.6706V19H24.6706V9H30.6706ZM20.6706 11H22.6706V13H20.6706V11ZM20.6706 15H22.6706V17H20.6706V15ZM20.6706 7H22.6706V9H20.6706V7Z" fill="black"/>
</g>
<path opacity="0.5" d="M9.31857 44V36.836L7.19457 37.556V36.524L10.4346 35.492V44H9.31857ZM16.899 44V35.648H18.039V39.104H22.803V35.648H23.943V44H22.803V40.124H18.039V44H16.899ZM28.4982 44.168C27.9222 44.168 27.4102 44.032 26.9622 43.76C26.5142 43.488 26.1622 43.108 25.9062 42.62C25.6582 42.132 25.5342 41.568 25.5342 40.928C25.5342 40.288 25.6582 39.724 25.9062 39.236C26.1622 38.748 26.5142 38.368 26.9622 38.096C27.4102 37.824 27.9222 37.688 28.4982 37.688C29.0822 37.688 29.5942 37.824 30.0342 38.096C30.4822 38.368 30.8302 38.748 31.0782 39.236C31.3342 39.724 31.4622 40.288 31.4622 40.928C31.4622 41.568 31.3342 42.132 31.0782 42.62C30.8302 43.108 30.4822 43.488 30.0342 43.76C29.5942 44.032 29.0822 44.168 28.4982 44.168ZM28.4982 43.184C29.0502 43.184 29.4982 42.98 29.8422 42.572C30.1942 42.156 30.3702 41.608 30.3702 40.928C30.3702 40.24 30.1942 39.692 29.8422 39.284C29.4982 38.876 29.0502 38.672 28.4982 38.672C27.9462 38.672 27.4942 38.876 27.1422 39.284C26.7982 39.692 26.6262 40.24 26.6262 40.928C26.6262 41.608 26.7982 42.156 27.1422 42.572C27.4942 42.98 27.9462 43.184 28.4982 43.184ZM35.0872 44.048C34.5032 44.048 34.0552 43.888 33.7432 43.568C33.4312 43.24 33.2752 42.764 33.2752 42.14V38.816H32.1832V37.856H33.2752V35.9C33.6272 35.876 33.9832 35.808 34.3432 35.696V37.856H35.6872V38.816H34.3432V42.044C34.3432 42.38 34.4232 42.64 34.5832 42.824C34.7512 43 34.9832 43.088 35.2792 43.088H35.6872V44.048H35.0872ZM39.5607 44.168C38.9527 44.168 38.4247 44.036 37.9767 43.772C37.5367 43.508 37.1967 43.132 36.9567 42.644C36.7167 42.156 36.5967 41.58 36.5967 40.916C36.5967 40.292 36.7127 39.74 36.9447 39.26C37.1847 38.772 37.5207 38.388 37.9527 38.108C38.3927 37.828 38.9167 37.688 39.5247 37.688C40.1087 37.688 40.6007 37.82 41.0007 38.084C41.4007 38.34 41.7047 38.7 41.9127 39.164C42.1207 39.62 42.2247 40.156 42.2247 40.772V41.276H37.7007C37.7567 41.9 37.9447 42.38 38.2647 42.716C38.5847 43.044 39.0207 43.208 39.5727 43.208C39.9327 43.208 40.2367 43.148 40.4847 43.028C40.7407 42.9 40.9087 42.736 40.9887 42.536H42.0927C41.9487 43.032 41.6487 43.428 41.1927 43.724C40.7367 44.02 40.1927 44.168 39.5607 44.168ZM39.5127 38.648C39.0087 38.648 38.6007 38.804 38.2887 39.116C37.9847 39.42 37.7967 39.844 37.7247 40.388H41.1447C41.1207 39.868 40.9727 39.448 40.7007 39.128C40.4367 38.808 40.0407 38.648 39.5127 38.648ZM43.6604 44V35.3H44.7284V44H43.6604Z" fill="black"/>
</svg>
