<svg width="61" height="47" viewBox="0 0 61 47" fill="none" xmlns="http://www.w3.org/2000/svg">
<g opacity="0.5">
<path d="M37.4692 16.4339L38.7675 16.8396V15.4794V13.7397V13.1855L38.2975 12.8917L31.8087 8.83619V4.60625C31.8087 3.33199 30.7782 2.30147 29.5039 2.30147C28.2296 2.30147 27.1991 3.33198 27.1991 4.60625V8.83619L20.7103 12.8917L20.2403 13.1855V13.7397V15.4794V16.8396L21.5386 16.4339L27.1991 14.665V17.589L25.8594 18.5937L25.4594 18.8937V19.3937V20.6985V22.0243L26.7341 21.66L29.5039 20.8687L32.2737 21.66L33.5484 22.0243V20.6985V19.3937V18.8937L33.1484 18.5937L31.8087 17.589V14.665L37.4692 16.4339Z" fill="white" stroke="black" stroke-width="2"/>
</g>
<path opacity="0.5" d="M6.68791 44V43.1L10.0239 40.1C10.3599 39.796 10.6239 39.532 10.8159 39.308C11.0079 39.076 11.1439 38.86 11.2239 38.66C11.3039 38.452 11.3439 38.232 11.3439 38C11.3439 37.576 11.1879 37.22 10.8759 36.932C10.5719 36.636 10.1559 36.488 9.62791 36.488C9.12391 36.488 8.71191 36.616 8.39191 36.872C8.07991 37.128 7.88391 37.46 7.80391 37.868H6.67591C6.75591 37.404 6.92791 36.992 7.19191 36.632C7.45591 36.272 7.79591 35.988 8.21191 35.78C8.63591 35.572 9.11591 35.468 9.65191 35.468C10.2119 35.468 10.7039 35.576 11.1279 35.792C11.5519 36.008 11.8839 36.304 12.1239 36.68C12.3639 37.056 12.4839 37.492 12.4839 37.988C12.4839 38.332 12.4239 38.652 12.3039 38.948C12.1839 39.236 11.9959 39.528 11.7399 39.824C11.4919 40.112 11.1679 40.432 10.7679 40.784L8.29591 42.992H12.5919V44H6.68791ZM17.2323 44V35.648H22.8723V36.668H18.3723V39.404H22.7283V40.424H18.3723V44H17.2323ZM24.4352 44V35.3H25.5032V44H24.4352ZM27.8463 36.968C27.6463 36.968 27.4703 36.896 27.3183 36.752C27.1743 36.608 27.1023 36.432 27.1023 36.224C27.1023 36.016 27.1743 35.84 27.3183 35.696C27.4703 35.552 27.6463 35.48 27.8463 35.48C28.0543 35.48 28.2303 35.552 28.3743 35.696C28.5183 35.84 28.5903 36.016 28.5903 36.224C28.5903 36.432 28.5183 36.608 28.3743 36.752C28.2303 36.896 28.0543 36.968 27.8463 36.968ZM27.3063 44V37.856H28.3743V44H27.3063ZM32.5413 44.036C32.0053 44.036 31.5293 43.9 31.1133 43.628C30.6973 43.356 30.3733 42.98 30.1413 42.5C29.9093 42.02 29.7933 41.476 29.7933 40.868C29.7933 40.252 29.9093 39.704 30.1413 39.224C30.3733 38.744 30.6973 38.368 31.1133 38.096C31.5293 37.824 32.0053 37.688 32.5413 37.688C32.9973 37.688 33.3973 37.792 33.7413 38C34.0853 38.2 34.3653 38.476 34.5813 38.828V37.856H35.6253V43.82C35.6253 44.708 35.3813 45.396 34.8933 45.884C34.4053 46.38 33.7253 46.628 32.8533 46.628C32.1093 46.628 31.4933 46.464 31.0053 46.136C30.5173 45.808 30.2013 45.388 30.0573 44.876H31.2093C31.3373 45.1 31.5333 45.284 31.7973 45.428C32.0613 45.572 32.4053 45.644 32.8293 45.644C33.3973 45.644 33.8253 45.5 34.1133 45.212C34.4093 44.924 34.5573 44.48 34.5573 43.88V42.92C34.3413 43.264 34.0613 43.536 33.7173 43.736C33.3733 43.936 32.9813 44.036 32.5413 44.036ZM32.7333 43.052C33.1013 43.052 33.4253 42.96 33.7053 42.776C33.9853 42.584 34.2053 42.324 34.3653 41.996C34.5253 41.668 34.6053 41.288 34.6053 40.856C34.6053 40.424 34.5253 40.044 34.3653 39.716C34.2053 39.388 33.9853 39.132 33.7053 38.948C33.4253 38.764 33.1013 38.672 32.7333 38.672C32.3733 38.672 32.0533 38.764 31.7733 38.948C31.4933 39.132 31.2733 39.388 31.1133 39.716C30.9613 40.044 30.8853 40.424 30.8853 40.856C30.8853 41.288 30.9613 41.668 31.1133 41.996C31.2733 42.324 31.4933 42.584 31.7733 42.776C32.0533 42.96 32.3733 43.052 32.7333 43.052ZM37.4195 44V35.3H38.4875V38.66C38.7035 38.348 38.9755 38.108 39.3035 37.94C39.6395 37.772 40.0035 37.688 40.3955 37.688C40.8515 37.688 41.2395 37.796 41.5595 38.012C41.8875 38.228 42.1395 38.524 42.3155 38.9C42.4915 39.276 42.5795 39.708 42.5795 40.196V44H41.5115V40.4C41.5115 39.864 41.3915 39.444 41.1515 39.14C40.9195 38.828 40.5675 38.672 40.0955 38.672C39.8155 38.672 39.5515 38.74 39.3035 38.876C39.0555 39.004 38.8555 39.196 38.7035 39.452C38.5595 39.7 38.4875 40.004 38.4875 40.364V44H37.4195ZM46.5299 44.048C45.9459 44.048 45.4979 43.888 45.1859 43.568C44.8739 43.24 44.7179 42.764 44.7179 42.14V38.816H43.6259V37.856H44.7179V35.9C45.0699 35.876 45.4259 35.808 45.7859 35.696V37.856H47.1299V38.816H45.7859V42.044C45.7859 42.38 45.8659 42.64 46.0259 42.824C46.1939 43 46.4259 43.088 46.7219 43.088H47.1299V44.048H46.5299ZM50.5954 44.18C49.8754 44.18 49.2834 44.012 48.8194 43.676C48.3554 43.332 48.0754 42.9 47.9794 42.38H49.0594C49.1234 42.612 49.2874 42.812 49.5514 42.98C49.8234 43.148 50.1634 43.232 50.5714 43.232C50.9714 43.232 51.2914 43.152 51.5314 42.992C51.7714 42.824 51.8914 42.596 51.8914 42.308C51.8914 42.076 51.8074 41.888 51.6394 41.744C51.4714 41.592 51.1834 41.488 50.7754 41.432L49.8394 41.312C48.6794 41.168 48.0994 40.6 48.0994 39.608C48.0994 39.232 48.1994 38.9 48.3994 38.612C48.6074 38.324 48.8874 38.1 49.2394 37.94C49.5994 37.772 50.0074 37.688 50.4634 37.688C51.1274 37.688 51.6674 37.848 52.0834 38.168C52.4994 38.488 52.7634 38.896 52.8754 39.392H51.8074C51.7274 39.144 51.5714 38.956 51.3394 38.828C51.1154 38.7 50.8314 38.636 50.4874 38.636C50.0954 38.636 49.7794 38.724 49.5394 38.9C49.3074 39.068 49.1914 39.292 49.1914 39.572C49.1914 39.804 49.2754 39.98 49.4434 40.1C49.6114 40.22 49.8874 40.304 50.2714 40.352L51.2074 40.472C51.7914 40.544 52.2314 40.744 52.5274 41.072C52.8314 41.4 52.9834 41.8 52.9834 42.272C52.9834 42.656 52.8794 42.992 52.6714 43.28C52.4634 43.568 52.1794 43.792 51.8194 43.952C51.4594 44.104 51.0514 44.18 50.5954 44.18Z" fill="black"/>
</svg>
