<svg width="61" height="47" viewBox="0 0 61 47" fill="none" xmlns="http://www.w3.org/2000/svg">
<g opacity="0.5" clip-path="url(#clip0_1_3234)">
<path d="M40.6336 10.4598L36.4021 9.80784L33.8234 5.59519C33.688 5.37469 33.498 5.19286 33.2718 5.06729C33.0456 4.94172 32.7908 4.87667 32.5321 4.87842L21.7247 4.96453C21.4128 4.96717 21.1096 5.06687 20.857 5.24978C20.6044 5.43269 20.4151 5.68973 20.3154 5.98519L19.0872 9.62695V18H21.6656C21.8661 18.6516 22.2701 19.2217 22.8185 19.6267C23.3668 20.0317 24.0305 20.2503 24.7122 20.2503C25.3939 20.2503 26.0577 20.0317 26.606 19.6267C27.1543 19.2217 27.5584 18.6516 27.7588 18H32.5406C32.7411 18.6516 33.1451 19.2217 33.6935 19.6267C34.2418 20.0317 34.9055 20.2503 35.5872 20.2503C36.2689 20.2503 36.9327 20.0317 37.481 19.6267C38.0293 19.2217 38.4334 18.6516 38.6338 18H41.5872V11.5717C41.5885 11.3027 41.4928 11.0422 41.3176 10.838C41.1425 10.6338 40.8997 10.4995 40.6336 10.4598ZM28.8372 6.40781L32.544 6.37828L34.6112 9.75548L28.8372 9.75347V6.40781ZM21.7367 6.46444L27.3372 6.41981V9.75295L20.6285 9.75056L21.7367 6.46444ZM24.7122 18.75C24.3785 18.75 24.0522 18.651 23.7747 18.4656C23.4972 18.2802 23.2809 18.0166 23.1532 17.7083C23.0255 17.3999 22.992 17.0606 23.0572 16.7333C23.1223 16.4059 23.283 16.1053 23.519 15.8693C23.755 15.6333 24.0557 15.4725 24.383 15.4074C24.7104 15.3423 25.0497 15.3757 25.358 15.5035C25.6664 15.6312 25.9299 15.8475 26.1153 16.125C26.3008 16.4025 26.3997 16.7287 26.3997 17.0625C26.3992 17.5099 26.2213 17.9388 25.9049 18.2552C25.5886 18.5716 25.1596 18.7495 24.7122 18.75ZM35.5872 18.75C35.2535 18.75 34.9272 18.651 34.6497 18.4656C34.3722 18.2802 34.1559 18.0166 34.0282 17.7083C33.9005 17.3999 33.867 17.0606 33.9322 16.7333C33.9973 16.4059 34.158 16.1053 34.394 15.8693C34.63 15.6333 34.9307 15.4725 35.258 15.4074C35.5854 15.3423 35.9247 15.3757 36.233 15.5035C36.5414 15.6312 36.8049 15.8475 36.9903 16.125C37.1758 16.4025 37.2747 16.7287 37.2747 17.0625C37.2742 17.5099 37.0963 17.9388 36.7799 18.2552C36.4636 18.5716 36.0346 18.7495 35.5872 18.75ZM40.0872 16.5H38.724C38.5922 15.7639 38.2058 15.0977 37.6324 14.6178C37.0589 14.1379 36.335 13.8749 35.5872 13.8749C34.8395 13.8749 34.1155 14.1379 33.5421 14.6178C32.9687 15.0977 32.5822 15.7639 32.4505 16.5H27.849C27.7172 15.7639 27.3308 15.0977 26.7574 14.6178C26.1839 14.1379 25.46 13.8749 24.7122 13.8749C23.9645 13.8749 23.2405 14.1379 22.6671 14.6178C22.0937 15.0977 21.7072 15.7639 21.5755 16.5H20.5872V11.2512L36.0806 11.276L40.0872 11.8933V16.5Z" fill="black" stroke="black" stroke-width="0.5"/>
</g>
<path opacity="0.5" d="M0.0212345 44V43.1L3.35723 40.1C3.69323 39.796 3.95723 39.532 4.14923 39.308C4.34123 39.076 4.47723 38.86 4.55723 38.66C4.63723 38.452 4.67723 38.232 4.67723 38C4.67723 37.576 4.52123 37.22 4.20923 36.932C3.90523 36.636 3.48923 36.488 2.96123 36.488C2.45723 36.488 2.04523 36.616 1.72523 36.872C1.41323 37.128 1.21723 37.46 1.13723 37.868H0.00923452C0.0892345 37.404 0.261235 36.992 0.525235 36.632C0.789235 36.272 1.12923 35.988 1.54523 35.78C1.96923 35.572 2.44923 35.468 2.98523 35.468C3.54523 35.468 4.03723 35.576 4.46123 35.792C4.88523 36.008 5.21723 36.304 5.45724 36.68C5.69723 37.056 5.81723 37.492 5.81723 37.988C5.81723 38.332 5.75723 38.652 5.63723 38.948C5.51724 39.236 5.32923 39.528 5.07323 39.824C4.82523 40.112 4.50123 40.432 4.10123 40.784L1.62923 42.992H5.92523V44H0.0212345ZM14.0697 44H12.9297V36.668H9.96567V35.648H17.0337V36.668H14.0697V44ZM18.4615 40.892V44H17.3935V37.856H18.4375V38.948C18.6295 38.588 18.8815 38.312 19.1935 38.12C19.5055 37.92 19.8535 37.82 20.2375 37.82H20.4295V38.852H20.2135C19.9015 38.852 19.6135 38.928 19.3495 39.08C19.0855 39.232 18.8695 39.46 18.7015 39.764C18.5415 40.068 18.4615 40.444 18.4615 40.892ZM23.1979 44.168C22.5659 44.168 22.0579 44 21.6739 43.664C21.2899 43.32 21.0979 42.856 21.0979 42.272C21.0979 41.648 21.3219 41.164 21.7699 40.82C22.2259 40.468 22.8699 40.292 23.7019 40.292H25.1539V40.028C25.1539 39.532 25.0259 39.18 24.7699 38.972C24.5219 38.756 24.1779 38.648 23.7379 38.648C23.3699 38.648 23.0659 38.72 22.8259 38.864C22.5859 39.008 22.4379 39.184 22.3819 39.392H21.3019C21.4059 38.888 21.6739 38.48 22.1059 38.168C22.5459 37.848 23.0939 37.688 23.7499 37.688C24.5099 37.688 25.1099 37.884 25.5499 38.276C25.9979 38.668 26.2219 39.28 26.2219 40.112V44H25.2139V43.076C24.9979 43.444 24.7059 43.72 24.3379 43.904C23.9699 44.08 23.5899 44.168 23.1979 44.168ZM23.4379 43.232C23.7019 43.232 23.9659 43.172 24.2299 43.052C24.4939 42.932 24.7139 42.756 24.8899 42.524C25.0659 42.284 25.1539 41.984 25.1539 41.624V41.168H23.7739C23.2699 41.168 22.8779 41.256 22.5979 41.432C22.3179 41.608 22.1779 41.872 22.1779 42.224C22.1779 42.552 22.2939 42.804 22.5259 42.98C22.7659 43.148 23.0699 43.232 23.4379 43.232ZM29.0318 40.364V44H27.9638V37.856H29.0078V38.684C29.2238 38.364 29.4998 38.12 29.8358 37.952C30.1718 37.776 30.5398 37.688 30.9398 37.688C31.3958 37.688 31.7838 37.796 32.1038 38.012C32.4318 38.228 32.6838 38.524 32.8598 38.9C33.0358 39.276 33.1238 39.708 33.1238 40.196V44H32.0558V40.4C32.0558 39.864 31.9358 39.444 31.6958 39.14C31.4638 38.828 31.1118 38.672 30.6398 38.672C30.3598 38.672 30.0958 38.74 29.8478 38.876C29.5998 39.004 29.3998 39.196 29.2478 39.452C29.1038 39.7 29.0318 40.004 29.0318 40.364ZM37.0381 44.18C36.3181 44.18 35.7261 44.012 35.2621 43.676C34.7981 43.332 34.5181 42.9 34.4221 42.38H35.5021C35.5661 42.612 35.7301 42.812 35.9941 42.98C36.2661 43.148 36.6061 43.232 37.0141 43.232C37.4141 43.232 37.7341 43.152 37.9741 42.992C38.2141 42.824 38.3341 42.596 38.3341 42.308C38.3341 42.076 38.2501 41.888 38.0821 41.744C37.9141 41.592 37.6261 41.488 37.2181 41.432L36.2821 41.312C35.1221 41.168 34.5421 40.6 34.5421 39.608C34.5421 39.232 34.6421 38.9 34.8421 38.612C35.0501 38.324 35.3301 38.1 35.6821 37.94C36.0421 37.772 36.4501 37.688 36.9061 37.688C37.5701 37.688 38.1101 37.848 38.5261 38.168C38.9421 38.488 39.2061 38.896 39.3181 39.392H38.2501C38.1701 39.144 38.0141 38.956 37.7821 38.828C37.5581 38.7 37.2741 38.636 36.9301 38.636C36.5381 38.636 36.2221 38.724 35.9821 38.9C35.7501 39.068 35.6341 39.292 35.6341 39.572C35.6341 39.804 35.7181 39.98 35.8861 40.1C36.0541 40.22 36.3301 40.304 36.7141 40.352L37.6501 40.472C38.2341 40.544 38.6741 40.744 38.9701 41.072C39.2741 41.4 39.4261 41.8 39.4261 42.272C39.4261 42.656 39.3221 42.992 39.1141 43.28C38.9061 43.568 38.6221 43.792 38.2621 43.952C37.9021 44.104 37.4941 44.18 37.0381 44.18ZM40.0881 37.856H41.1801V37.304C41.1801 36.672 41.3481 36.18 41.6841 35.828C42.0281 35.476 42.5081 35.3 43.1241 35.3H43.5921V36.26H43.2921C42.9561 36.26 42.6961 36.36 42.5121 36.56C42.3361 36.752 42.2481 37.024 42.2481 37.376V37.856H43.5921V38.816H42.2481V44H41.1801V38.816H40.0881V37.856ZM47.2547 44.168C46.6467 44.168 46.1187 44.036 45.6707 43.772C45.2307 43.508 44.8907 43.132 44.6507 42.644C44.4107 42.156 44.2907 41.58 44.2907 40.916C44.2907 40.292 44.4067 39.74 44.6387 39.26C44.8787 38.772 45.2147 38.388 45.6467 38.108C46.0867 37.828 46.6107 37.688 47.2187 37.688C47.8027 37.688 48.2947 37.82 48.6947 38.084C49.0947 38.34 49.3987 38.7 49.6067 39.164C49.8147 39.62 49.9187 40.156 49.9187 40.772V41.276H45.3947C45.4507 41.9 45.6387 42.38 45.9587 42.716C46.2787 43.044 46.7147 43.208 47.2667 43.208C47.6267 43.208 47.9307 43.148 48.1787 43.028C48.4347 42.9 48.6027 42.736 48.6827 42.536H49.7867C49.6427 43.032 49.3427 43.428 48.8867 43.724C48.4307 44.02 47.8867 44.168 47.2547 44.168ZM47.2067 38.648C46.7027 38.648 46.2947 38.804 45.9827 39.116C45.6787 39.42 45.4907 39.844 45.4187 40.388H48.8387C48.8147 39.868 48.6667 39.448 48.3947 39.128C48.1307 38.808 47.7347 38.648 47.2067 38.648ZM52.4224 40.892V44H51.3544V37.856H52.3984V38.948C52.5904 38.588 52.8424 38.312 53.1544 38.12C53.4664 37.92 53.8144 37.82 54.1984 37.82H54.3904V38.852H54.1744C53.8624 38.852 53.5744 38.928 53.3104 39.08C53.0464 39.232 52.8304 39.46 52.6624 39.764C52.5024 40.068 52.4224 40.444 52.4224 40.892ZM57.6749 44.18C56.9549 44.18 56.3629 44.012 55.8989 43.676C55.4349 43.332 55.1549 42.9 55.0589 42.38H56.1389C56.2029 42.612 56.3669 42.812 56.6309 42.98C56.9029 43.148 57.2429 43.232 57.6509 43.232C58.0509 43.232 58.3709 43.152 58.6109 42.992C58.8509 42.824 58.9709 42.596 58.9709 42.308C58.9709 42.076 58.8869 41.888 58.7189 41.744C58.5509 41.592 58.2629 41.488 57.8549 41.432L56.9189 41.312C55.7589 41.168 55.1789 40.6 55.1789 39.608C55.1789 39.232 55.2789 38.9 55.4789 38.612C55.6869 38.324 55.9669 38.1 56.3189 37.94C56.6789 37.772 57.0869 37.688 57.5429 37.688C58.2069 37.688 58.7469 37.848 59.1629 38.168C59.5789 38.488 59.8429 38.896 59.9549 39.392H58.8869C58.8069 39.144 58.6509 38.956 58.4189 38.828C58.1949 38.7 57.9109 38.636 57.5669 38.636C57.1749 38.636 56.8589 38.724 56.6189 38.9C56.3869 39.068 56.2709 39.292 56.2709 39.572C56.2709 39.804 56.3549 39.98 56.5229 40.1C56.6909 40.22 56.9669 40.304 57.3509 40.352L58.2869 40.472C58.8709 40.544 59.3109 40.744 59.6069 41.072C59.9109 41.4 60.0629 41.8 60.0629 42.272C60.0629 42.656 59.9589 42.992 59.7509 43.28C59.5429 43.568 59.2589 43.792 58.8989 43.952C58.5389 44.104 58.1309 44.18 57.6749 44.18Z" fill="black"/>
<defs>
<clipPath id="clip0_1_3234">
<rect width="24" height="24" fill="white" transform="translate(18.3372)"/>
</clipPath>
</defs>
</svg>
